<?xml version="1.0" encoding="UTF-8" standalone="no"?>
<svg version="1.1" width="300" height="360" 
	xmlns="http://www.w3.org/2000/svg" 
	xmlns:xlink="http://www.w3.org/1999/xlink">

<!--outter shield-->
<path fill="#ffcf00" d="M 0,0 H 300 C 300,202 312,291 150,360 C -12,291 0,202 0,0 z"/>

<!--inner shield-->
<path fill="#0057be" d="M 10,38 H 66 V 71 H 122 V 38 H 178 V 71 H 234 V 38 H 290 C 290,233 290,278 150,350 C 10,278 10,233 10,38 z"/>

<!--inner decorations-->
<path fill="#ffcf00" d="M 102.922,203.364 
	L 40,194 L 102.922,184.636 
	 C  98.9,175.1  92.4,179.7  87.1,177.4 C  82.1,175.2  82.3,169.1  75.6,165.5 C  67.2,161.0  62.1,168.2  48.4,151.9 
	 C  72.7,158.9  72.4,154.2  78.2,155.8 C  87.3,158.2  85.9,162.4  91.0,164.0 C  97.5,166.1 103.4,161.0 110.1,167.3 
	L 72.218,116.218 L 123.333,154.089 
	 C 127.2,144.5 119.4,143.2 117.3,137.8 C 115.3,132.7 119.7,128.5 117.5,121.2 C 114.8,112.1 106.1,113.6 107.9, 92.4 
	 C 120.2,114.5 123.3,111.0 126.2,116.2 C 131.0,124.3 127.0,126.3 129.5,131.1 C 132.6,137.1 140.4,137.7 140.7,146.9 
	L 150,84 L 159.364,146.922 
	 C 168.9,142.9 164.3,136.4 166.6,131.1 C 168.8,126.1 174.9,126.3 178.5,119.6 C 183.0,111.2 175.8,106.1 192.1, 92.4 
	 C 185.1,116.7 189.8,116.4 188.2,122.2 C 185.8,131.3 181.6,129.9 180.0,135.0 C 177.9,141.5 183.0,147.4 176.7,154.1 
	L 227.782,116.218 L 189.911,167.333 
	 C 199.5,171.2 200.8,163.4 206.2,161.3 C 211.3,159.3 215.5,163.7 222.8,161.5 C 231.9,158.8 230.4,150.1 251.6,151.9 
	 C 229.5,164.2 233.0,167.3 227.8,170.2 C 219.7,175.0 217.7,171.0 212.9,173.5 C 206.9,176.6 206.3,184.4 197.1,184.7 
	L 260,194 L 197.078,203.364 
	 C 201.1,212.9 207.6,208.3 212.9,210.6 C 217.9,212.8 217.7,218.9 224.4,222.5 C 232.8,227.0 237.9,219.8 251.6,236.1 
	 C 227.3,229.1 227.6,233.8 221.8,232.2 C 212.7,229.8 214.1,225.6 209.0,224.0 C 202.5,221.9 196.6,227.0 189.9,220.7 
	L 227.782,271.782 L 176.667,233.911 
	 C 172.8,243.5 180.6,244.8 182.7,250.2 C 184.7,255.3 180.3,259.5 182.5,266.8 C 185.2,275.9 193.9,274.4 192.1,295.6 
	 C 179.8,273.5 176.7,277.0 173.8,271.8 C 169.0,263.7 173.0,261.7 170.5,256.9 C 167.4,250.9 159.6,250.3 159.3,241.1 
	L 150,304 140.636,241.078 
	 C 131.1,245.1 135.7,251.6 133.4,256.9 C 131.2,261.9 125.1,261.7 121.5,268.4 C 117.0,276.8 124.2,281.9 107.9,295.6 
	 C 114.9,271.3 110.2,271.6 111.8,265.8 C 114.2,256.7 118.4,258.1 120.0,253.0 C 122.1,246.5 117.0,240.6 123.3,233.9 
	L 72.218,271.782 L 110.089,220.667 
	 C 100.5,216.8  99.2,224.6  93.8,226.7 C  88.7,228.7  84.5,224.3  77.2,226.5 C  68.1,229.2  69.6,237.9  48.4,236.1 
	 C  70.5,223.8  67.0,220.7  72.2,217.8 C  80.3,213.0  82.3,217.0  87.1,214.5 C  93.1,211.4  93.7,203.6 102.9,203.3 z"/>

</svg>