<svg width="303" height="60" viewBox="0 0 303 60" fill="none" xmlns="http://www.w3.org/2000/svg">
<g clip-path="url(#clip0_629_650)">
<path d="M9.55224e-05 0H50.0001C50.0001 33.6667 52.0001 48.5 25.0001 60C-1.9999 48.5 9.55224e-05 33.6667 9.55224e-05 0Z" fill="#FFCF00"/>
<path d="M1.66699 6.3335H11.0003V11.8335H20.3337V6.3335H29.667V11.8335H39.0003V6.3335H48.3337C48.3337 38.8335 48.3337 46.3335 25.0003 58.3335C1.66699 46.3335 1.66699 38.8335 1.66699 6.3335Z" fill="#0057BE"/>
<path d="M17.154 33.894L6.66699 32.3333L17.154 30.7727C16.4837 29.1833 15.4003 29.95 14.517 29.5667C13.6837 29.2 13.717 28.1833 12.6003 27.5833C11.2003 26.8333 10.3503 28.0333 8.06699 25.3167C12.117 26.4833 12.067 25.7 13.0337 25.9667C14.5503 26.3667 14.317 27.0667 15.167 27.3333C16.2503 27.6833 17.2337 26.8333 18.3503 27.8833L12.0367 19.3697L20.5558 25.6815C21.2003 24.0833 19.9003 23.8667 19.5503 22.9667C19.217 22.1167 19.9503 21.4167 19.5837 20.2C19.1337 18.6833 17.6837 18.9333 17.9837 15.4C20.0337 19.0833 20.5503 18.5 21.0337 19.3667C21.8337 20.7167 21.167 21.05 21.5837 21.85C22.1003 22.85 23.4003 22.95 23.4503 24.4833L25.0003 14L26.561 24.487C28.1503 23.8167 27.3837 22.7333 27.767 21.85C28.1337 21.0167 29.1503 21.05 29.7503 19.9333C30.5003 18.5333 29.3003 17.6833 32.017 15.4C30.8503 19.45 31.6337 19.4 31.367 20.3667C30.967 21.8833 30.267 21.65 30.0003 22.5C29.6503 23.5833 30.5003 24.5667 29.4503 25.6833L37.964 19.3697L31.6522 27.8888C33.2503 28.5333 33.467 27.2333 34.367 26.8833C35.217 26.55 35.917 27.2833 37.1337 26.9167C38.6503 26.4667 38.4003 25.0167 41.9337 25.3167C38.2503 27.3667 38.8337 27.8833 37.967 28.3667C36.617 29.1667 36.2837 28.5 35.4837 28.9167C34.4837 29.4333 34.3837 30.7333 32.8503 30.7833L43.3337 32.3333L32.8467 33.894C33.517 35.4833 34.6003 34.7167 35.4837 35.1C36.317 35.4667 36.2837 36.4833 37.4003 37.0833C38.8003 37.8333 39.6503 36.6333 41.9337 39.35C37.8837 38.1833 37.9337 38.9667 36.967 38.7C35.4503 38.3 35.6837 37.6 34.8337 37.3333C33.7503 36.9833 32.767 37.8333 31.6503 36.7833L37.964 45.297L29.4448 38.9852C28.8003 40.5833 30.1003 40.8 30.4503 41.7C30.7837 42.55 30.0503 43.25 30.417 44.4667C30.867 45.9833 32.317 45.7333 32.017 49.2667C29.967 45.5833 29.4503 46.1667 28.967 45.3C28.167 43.95 28.8337 43.6167 28.417 42.8167C27.9003 41.8167 26.6003 41.7167 26.5503 40.1833L25.0003 50.6667L23.4397 40.1797C21.8503 40.85 22.617 41.9333 22.2337 42.8167C21.867 43.65 20.8503 43.6167 20.2503 44.7333C19.5003 46.1333 20.7003 46.9833 17.9837 49.2667C19.1503 45.2167 18.367 45.2667 18.6337 44.3C19.0337 42.7833 19.7337 43.0167 20.0003 42.1667C20.3503 41.0833 19.5003 40.1 20.5503 38.9833L12.0367 45.297L18.3485 36.7778C16.7503 36.1333 16.5337 37.4333 15.6337 37.7833C14.7837 38.1167 14.0837 37.3833 12.867 37.75C11.3503 38.2 11.6003 39.65 8.06699 39.35C11.7503 37.3 11.167 36.7833 12.0337 36.3C13.3837 35.5 13.717 36.1667 14.517 35.75C15.517 35.2333 15.617 33.9333 17.1503 33.8833L17.154 33.894Z" fill="#FFCF00"/>
</g>
<path d="M71.14 19.314H76.498L77.334 15.21H81.894V42H76.764V23.798H71.14V19.314ZM98.315 42.456C94.9964 42.456 92.3997 41.5693 90.525 39.796C88.6504 37.9973 87.713 35.4893 87.713 32.272V25.128C87.713 23.076 88.1437 21.29 89.005 19.77C89.8917 18.2247 91.133 17.034 92.729 16.198C94.325 15.362 96.187 14.944 98.315 14.944C101.634 14.944 104.23 15.8433 106.105 17.642C107.98 19.4153 108.917 21.9107 108.917 25.128V32.272C108.917 34.324 108.474 36.1227 107.587 37.668C106.726 39.188 105.497 40.366 103.901 41.202C102.305 42.038 100.443 42.456 98.315 42.456ZM92.957 32.462C92.957 34.1593 93.4257 35.4767 94.363 36.414C95.3004 37.3513 96.6177 37.82 98.315 37.82C100.038 37.82 101.355 37.364 102.267 36.452C103.204 35.5147 103.673 34.1847 103.673 32.462V24.9C103.673 23.2027 103.204 21.898 102.267 20.986C101.33 20.0487 100.012 19.58 98.315 19.58C96.5924 19.58 95.2624 20.036 94.325 20.948C93.413 21.86 92.957 23.1773 92.957 24.9V32.462ZM123.47 42.456C120.253 42.456 117.745 41.5693 115.946 39.796C114.173 37.9973 113.286 35.4893 113.286 32.272V24.786C113.286 22.7847 113.704 21.0493 114.54 19.58C115.401 18.0853 116.617 16.9453 118.188 16.16C119.784 15.3493 121.646 14.944 123.774 14.944C126.662 14.944 128.929 15.6407 130.576 17.034C132.248 18.402 133.084 20.2767 133.084 22.658V23.114H127.802V22.62C127.802 21.632 127.397 20.872 126.586 20.34C125.801 19.7827 124.686 19.504 123.242 19.504C121.646 19.504 120.417 19.9347 119.556 20.796C118.72 21.6573 118.302 22.8987 118.302 24.52V27.598C119.822 26.1287 121.912 25.394 124.572 25.394C127.359 25.394 129.575 26.1033 131.222 27.522C132.869 28.9407 133.692 30.8533 133.692 33.26V33.83C133.692 35.5273 133.261 37.0347 132.4 38.352C131.539 39.644 130.323 40.6573 128.752 41.392C127.207 42.1013 125.446 42.456 123.47 42.456ZM118.302 33.906C118.302 35.198 118.745 36.224 119.632 36.984C120.544 37.744 121.811 38.124 123.432 38.124C125.079 38.124 126.333 37.7693 127.194 37.06C128.081 36.3253 128.524 35.274 128.524 33.906V33.564C128.524 32.272 128.119 31.284 127.308 30.6C126.523 29.916 125.383 29.574 123.888 29.574C122.089 29.574 120.709 29.9413 119.746 30.676C118.783 31.3853 118.302 32.386 118.302 33.678V33.906ZM157.2 42.456C153.552 42.456 150.689 41.468 148.612 39.492C146.56 37.4907 145.534 34.7293 145.534 31.208V26.192C145.534 23.912 146.003 21.9233 146.94 20.226C147.903 18.5287 149.258 17.224 151.006 16.312C152.779 15.4 154.844 14.944 157.2 14.944C160.848 14.944 163.698 15.9447 165.75 17.946C167.827 19.922 168.866 22.6707 168.866 26.192V31.208C168.866 33.488 168.385 35.4767 167.422 37.174C166.485 38.8713 165.129 40.176 163.356 41.088C161.608 42 159.556 42.456 157.2 42.456ZM150.892 31.626C150.892 33.4753 151.449 34.932 152.564 35.996C153.704 37.06 155.249 37.592 157.2 37.592C159.201 37.592 160.747 37.0727 161.836 36.034C162.951 34.9953 163.508 33.526 163.508 31.626V25.774C163.508 23.9247 162.938 22.468 161.798 21.404C160.683 20.34 159.151 19.808 157.2 19.808C155.199 19.808 153.641 20.3273 152.526 21.366C151.437 22.4047 150.892 23.874 150.892 25.774V31.626ZM174.352 15.4H192.972V20.036H179.558V26.002H185.638C188.475 26.002 190.705 26.6607 192.326 27.978C193.947 29.2953 194.758 31.1193 194.758 33.45V34.476C194.758 35.9707 194.378 37.288 193.618 38.428C192.883 39.568 191.819 40.4547 190.426 41.088C189.058 41.696 187.462 42 185.638 42H174.352V15.4ZM185.258 37.516C186.626 37.516 187.665 37.25 188.374 36.718C189.083 36.186 189.438 35.4007 189.438 34.362V33.526C189.438 32.4873 189.083 31.702 188.374 31.17C187.665 30.638 186.626 30.372 185.258 30.372H179.558V37.516H185.258ZM209.367 42.38C207.036 42.38 205.174 41.658 203.781 40.214V48.46H198.651V21.1H203.059L203.401 23.456C204.87 21.632 206.922 20.72 209.557 20.72C212.065 20.72 214.053 21.518 215.523 23.114C217.017 24.6847 217.765 26.838 217.765 29.574V33.526C217.765 35.2993 217.41 36.8573 216.701 38.2C216.017 39.5173 215.041 40.5433 213.775 41.278C212.508 42.0127 211.039 42.38 209.367 42.38ZM203.667 33.602C203.667 34.97 204.047 36.034 204.807 36.794C205.592 37.5287 206.707 37.896 208.151 37.896C209.569 37.896 210.671 37.5287 211.457 36.794C212.242 36.034 212.635 34.97 212.635 33.602V29.498C212.635 28.13 212.242 27.0787 211.457 26.344C210.671 25.584 209.569 25.204 208.151 25.204C206.707 25.204 205.592 25.584 204.807 26.344C204.047 27.0787 203.667 28.13 203.667 29.498V33.602ZM250.769 20.264H242.675V42H237.355V20.264H229.261V15.4H250.769V20.264ZM264.252 42.38C261.921 42.38 260.059 41.658 258.666 40.214V48.46H253.536V21.1H257.944L258.286 23.456C259.755 21.632 261.807 20.72 264.442 20.72C266.95 20.72 268.938 21.518 270.408 23.114C271.902 24.6847 272.65 26.838 272.65 29.574V33.526C272.65 35.2993 272.295 36.8573 271.586 38.2C270.902 39.5173 269.926 40.5433 268.66 41.278C267.393 42.0127 265.924 42.38 264.252 42.38ZM258.552 33.602C258.552 34.97 258.932 36.034 259.692 36.794C260.477 37.5287 261.592 37.896 263.036 37.896C264.454 37.896 265.556 37.5287 266.342 36.794C267.127 36.034 267.52 34.97 267.52 33.602V29.498C267.52 28.13 267.127 27.0787 266.342 26.344C265.556 25.584 264.454 25.204 263.036 25.204C261.592 25.204 260.477 25.584 259.692 26.344C258.932 27.0787 258.552 28.13 258.552 29.498V33.602ZM288.678 42.456C285.03 42.456 282.168 41.468 280.09 39.492C278.038 37.4907 277.012 34.7293 277.012 31.208V26.192C277.012 23.912 277.481 21.9233 278.418 20.226C279.381 18.5287 280.736 17.224 282.484 16.312C284.258 15.4 286.322 14.944 288.678 14.944C292.326 14.944 295.176 15.9447 297.228 17.946C299.306 19.922 300.344 22.6707 300.344 26.192V31.208C300.344 33.488 299.863 35.4767 298.9 37.174C297.963 38.8713 296.608 40.176 294.834 41.088C293.086 42 291.034 42.456 288.678 42.456ZM282.37 31.626C282.37 33.4753 282.928 34.932 284.042 35.996C285.182 37.06 286.728 37.592 288.678 37.592C290.68 37.592 292.225 37.0727 293.314 36.034C294.429 34.9953 294.986 33.526 294.986 31.626V25.774C294.986 23.9247 294.416 22.468 293.276 21.404C292.162 20.34 290.629 19.808 288.678 19.808C286.677 19.808 285.119 20.3273 284.004 21.366C282.915 22.4047 282.37 23.874 282.37 25.774V31.626Z" fill="#363636"/>
<defs>
<clipPath id="clip0_629_650">
<rect width="50" height="60" fill="white"/>
</clipPath>
</defs>
</svg>
